HIERARCHY
ROOT Hips
{
  OFFSET 5.84602e-005 68.8428 3.50346
  CHANNELS 6 Xposition Yposition Zposition Zrotation Xrotation Yrotation
  JOINT Spine
  {
    OFFSET 0 8.597 -4.6522
    CHANNELS 3 Zrotation Xrotation Yrotation
    JOINT Spine1
    {
      OFFSET 0 7.8454 0.4098
      CHANNELS 3 Zrotation Xrotation Yrotation
      JOINT Spine2
      {
        OFFSET 0 9.7078 -2.1609
        CHANNELS 3 Zrotation Xrotation Yrotation
        JOINT Neck
        {
          OFFSET 0 21.8761 -0.4549
          CHANNELS 3 Zrotation Xrotation Yrotation
          JOINT Head
          {
            OFFSET 0 12.3537 3.3602
            CHANNELS 3 Zrotation Xrotation Yrotation
            End Site
            {
              OFFSET 0.0001 18.9506 0.5657
            }
          }
        }
        JOINT LeftShoulder
        {
          OFFSET 2.2086 21.1115 7.2329
          CHANNELS 3 Zrotation Xrotation Yrotation
          JOINT LeftArm
          {
            OFFSET 13.1193 3.0282 -4.8998
            CHANNELS 3 Zrotation Xrotation Yrotation
            JOINT LeftForeArm
            {
              OFFSET 27.4081 -0.0973053 -0.2375
              CHANNELS 3 Zrotation Xrotation Yrotation
              JOINT LeftHand
              {
                OFFSET 22.8641 0.0662994 -0.1369
                CHANNELS 3 Zrotation Xrotation Yrotation
                JOINT LeftHandIndex1
                {
                  OFFSET 8.8614 0.775009 2.4612
                  CHANNELS 3 Zrotation Xrotation Yrotation
                  JOINT LeftHandIndex2
                  {
                    OFFSET 3.3146 -0.808304 0.5841
                    CHANNELS 3 Zrotation Xrotation Yrotation
                    JOINT LeftHandIndex3
                    {
                      OFFSET 2.2628 -0.552002 0.3989
                      CHANNELS 3 Zrotation Xrotation Yrotation
                      End Site
                      {
                        OFFSET 1.6102 -0.4807 0.2612
                      }
                    }
                  }
                }
                JOINT LeftHandMiddle1
                {
                  OFFSET 8.9937 0.895004 0.2143
                  CHANNELS 3 Zrotation Xrotation Yrotation
                  JOINT LeftHandMiddle2
                  {
                    OFFSET 4.0984 0.0113983 -0.0242
                    CHANNELS 3 Zrotation Xrotation Yrotation
                    JOINT LeftHandMiddle3
                    {
                      OFFSET 2.2716 0.00689697 -0.0138001
                      CHANNELS 3 Zrotation Xrotation Yrotation
                      End Site
                      {
                        OFFSET 2.0404 -0.1441 0.0027
                      }
                    }
                  }
                }
                JOINT LeftHandRing1
                {
                  OFFSET 8.5234 0.597198 -2.0164
                  CHANNELS 3 Zrotation Xrotation Yrotation
                  JOINT LeftHandRing2
                  {
                    OFFSET 3.7188 -0.188293 -0.2328
                    CHANNELS 3 Zrotation Xrotation Yrotation
                    JOINT LeftHandRing3
                    {
                      OFFSET 2.1191 -0.106598 -0.1332
                      CHANNELS 3 Zrotation Xrotation Yrotation
                      End Site
                      {
                        OFFSET 1.8737 -0.2304 -0.0886
                      }
                    }
                  }
                }
                JOINT LeftHandPinky1
                {
                  OFFSET 7.9094 -0.601089 -3.4825
                  CHANNELS 3 Zrotation Xrotation Yrotation
                  JOINT LeftHandPinky2
                  {
                    OFFSET 2.2874 -0.477005 -0.6314
                    CHANNELS 3 Zrotation Xrotation Yrotation
                    JOINT LeftHandPinky3
                    {
                      OFFSET 1.6774 -0.349396 -0.4633
                      CHANNELS 3 Zrotation Xrotation Yrotation
                      End Site
                      {
                        OFFSET 1.4888 -0.4091 -0.3416
                      }
                    }
                  }
                }
                JOINT LeftHandThumb1
                {
                  OFFSET 1.833 -1.3875 1.3896
                  CHANNELS 3 Zrotation Xrotation Yrotation
                  JOINT LeftHandThumb2
                  {
                    OFFSET 3.4129 -1.121 2.5732
                    CHANNELS 3 Zrotation Xrotation Yrotation
                    JOINT LeftHandThumb3
                    {
                      OFFSET 2.2474 -0.804199 1.6192
                      CHANNELS 3 Zrotation Xrotation Yrotation
                      End Site
                      {
                        OFFSET 1.6527 -0.5689 1.1317
                      }
                    }
                  }
                }
              }
            }
          }
        }
        JOINT RightShoulder
        {
          OFFSET -2.2086 21.1115 7.2329
          CHANNELS 3 Zrotation Xrotation Yrotation
          JOINT RightArm
          {
            OFFSET -13.1216 3.0287 -4.9007
            CHANNELS 3 Zrotation Xrotation Yrotation
            JOINT RightForeArm
            {
              OFFSET -27.4081 -0.0973053 -0.2375
              CHANNELS 3 Zrotation Xrotation Yrotation
              JOINT RightHand
              {
                OFFSET -22.8641 0.0664063 -0.1369
                CHANNELS 3 Zrotation Xrotation Yrotation
                JOINT RightHandIndex1
                {
                  OFFSET -8.8614 0.774994 2.4612
                  CHANNELS 3 Zrotation Xrotation Yrotation
                  JOINT RightHandIndex2
                  {
                    OFFSET -3.3146 -0.808304 0.5841
                    CHANNELS 3 Zrotation Xrotation Yrotation
                    JOINT RightHandIndex3
                    {
                      OFFSET -2.2628 -0.552002 0.3989
                      CHANNELS 3 Zrotation Xrotation Yrotation
                      End Site
                      {
                        OFFSET -1.6102 -0.4807 0.2612
                      }
                    }
                  }
                }
                JOINT RightHandMiddle1
                {
                  OFFSET -8.9937 0.894989 0.2143
                  CHANNELS 3 Zrotation Xrotation Yrotation
                  JOINT RightHandMiddle2
                  {
                    OFFSET -4.0984 0.0113983 -0.0242
                    CHANNELS 3 Zrotation Xrotation Yrotation
                    JOINT RightHandMiddle3
                    {
                      OFFSET -2.2716 0.00691223 -0.0138001
                      CHANNELS 3 Zrotation Xrotation Yrotation
                      End Site
                      {
                        OFFSET -2.0404 -0.1441 0.0027
                      }
                    }
                  }
                }
                JOINT RightHandRing1
                {
                  OFFSET -8.5234 0.597198 -2.0164
                  CHANNELS 3 Zrotation Xrotation Yrotation
                  JOINT RightHandRing2
                  {
                    OFFSET -3.7188 -0.188309 -0.2328
                    CHANNELS 3 Zrotation Xrotation Yrotation
                    JOINT RightHandRing3
                    {
                      OFFSET -2.1191 -0.106598 -0.1332
                      CHANNELS 3 Zrotation Xrotation Yrotation
                      End Site
                      {
                        OFFSET -1.8737 -0.2304 -0.0886
                      }
                    }
                  }
                }
                JOINT RightHandPinky1
                {
                  OFFSET -7.9094 -0.601105 -3.4825
                  CHANNELS 3 Zrotation Xrotation Yrotation
                  JOINT RightHandPinky2
                  {
                    OFFSET -2.2874 -0.477005 -0.6314
                    CHANNELS 3 Zrotation Xrotation Yrotation
                    JOINT RightHandPinky3
                    {
                      OFFSET -1.6774 -0.349396 -0.4633
                      CHANNELS 3 Zrotation Xrotation Yrotation
                      End Site
                      {
                        OFFSET -1.4888 -0.4091 -0.3416
                      }
                    }
                  }
                }
                JOINT RightHandThumb1
                {
                  OFFSET -1.833 -1.38751 1.3896
                  CHANNELS 3 Zrotation Xrotation Yrotation
                  JOINT RightHandThumb2
                  {
                    OFFSET -3.41299 -1.12099 2.5732
                    CHANNELS 3 Zrotation Xrotation Yrotation
                    JOINT RightHandThumb3
                    {
                      OFFSET -2.24741 -0.804108 1.6192
                      CHANNELS 3 Zrotation Xrotation Yrotation
                      End Site
                      {
                        OFFSET -1.6527 -0.5689 1.1317
                      }
                    }
                  }
                }
              }
            }
          }
        }
      }
    }
  }
  JOINT RightUpLeg
  {
    OFFSET -9.1966 3.8861 -0.7581
    CHANNELS 3 Zrotation Xrotation Yrotation
    JOINT RightLeg
    {
      OFFSET -0.7359 -41.0265 0
      CHANNELS 3 Zrotation Xrotation Yrotation
      JOINT RightFoot
      {
        OFFSET 0 -40.2855 0
        CHANNELS 3 Zrotation Xrotation Yrotation
        JOINT RightToeBase
        {
          OFFSET 0 -5.6122 11.7359
          CHANNELS 3 Zrotation Xrotation Yrotation
          End Site
          {
            OFFSET 0 0 7.8731
          }
        }
      }
    }
  }
  JOINT LeftUpLeg
  {
    OFFSET 9.1965 3.8864 -0.7581
    CHANNELS 3 Zrotation Xrotation Yrotation
    JOINT LeftLeg
    {
      OFFSET 0.7359 -41.0268 0
      CHANNELS 3 Zrotation Xrotation Yrotation
      JOINT LeftFoot
      {
        OFFSET 0 -40.2855 0
        CHANNELS 3 Zrotation Xrotation Yrotation
        JOINT LeftToeBase
        {
          OFFSET 0 -5.6122 11.7359
          CHANNELS 3 Zrotation Xrotation Yrotation
          End Site
          {
            OFFSET 0 0 7.8731
          }
        }
      }
    }
  }
}
MOTION
Frames:	4
Frame Time:	0.0333333
-6.44843 14.0378 -5.42705 -0 -17.8414 -0 0.196174 5.75949 2.99944 0.0880434 11.5213 6.025 0.0880431 11.5213 6.025 -16.9602 -27.4464 -21.0019 -12.9818 5.45376 -5.64542 25.3978 -0.697202 -71.6954 -36.3644 -15.6428 -12.0467 -56.3436 -24.7456 -90.7815 -28.8492 29.953 10.5556 -1.3442e-007 1.70987e-006 -1.47835e-006 1.69664e-007 -6.38204e-008 -1.12631e-007 4.73748e-007 -1.83751e-006 1.25308e-006 -1.3442e-007 1.70987e-006 -1.47835e-006 -0.0146113 -8.7878e-005 -1.5808e-007 4.71775e-007 -1.83768e-006 1.25285e-006 -1.3442e-007 1.70987e-006 -1.47835e-006 -0.0186976 -0.00116843 5.84289e-005 1.69664e-007 -6.38021e-008 -1.12643e-007 -1.3442e-007 1.70987e-006 -1.47835e-006 -0.0122523 -0.00324388 0.000678159 4.72117e-007 -1.83808e-006 1.25297e-006 -1.3442e-007 1.70987e-006 -1.47835e-006 1.69664e-007 -6.38204e-008 -1.12631e-007 4.73748e-007 -1.83751e-006 1.25308e-006 -2.72357 -27.8607 9.88579 73.9852 5.44596 20.1484 -14.0132 -5.28817 38.8753 67.8267 2.68828 -14.1166 -1.12336e-006 -5.85381e-007 1.09563e-006 -2.1894e-006 -9.79733e-007 1.86111e-006 4.77083e-015 -5.1684e-015 -3.57812e-015 -1.12336e-006 -5.85381e-007 1.09563e-006 0.0149923 -8.83272e-005 1.12209e-006 3.62078e-031 2.78299e-015 -7.45443e-015 -1.12336e-006 -5.85381e-007 1.09563e-006 0.0189681 -0.0011902 -6.13179e-005 -1.59028e-015 2.38542e-015 -2.18663e-015 -1.12336e-006 -5.85381e-007 1.09563e-006 0.0122351 -0.00323931 -0.000669325 -1.59028e-015 -2.38542e-015 1.07344e-014 -1.12336e-006 -5.85381e-007 1.09563e-006 -2.1894e-006 -9.79733e-007 1.86111e-006 4.77083e-015 -5.1684e-015 -3.57812e-015 -88.4575 -38.2159 -100.273 -165.995 41.8198 151.738 14.3118 -33.8441 17.8755 1.76556e-031 -1.59028e-015 6.36111e-015 102.081 -28.1488 98.7771 162.262 50.7602 -149.899 -14.0379 -11.2287 -26.6285 1.88351e-006 8.62359e-008 1.43603e-008 
-6.44911 13.8896 -5.50635 -0 -17.0109 -0 0.162512 5.47898 3.00502 0.0349113 10.9593 6.03606 0.0349116 10.9593 6.03607 -16.9622 -27.4588 -21.0061 -13.0694 5.84562 -5.64716 25.4909 -0.267514 -71.7954 -36.5186 -15.5897 -12.0873 -56.3411 -24.5914 -90.8107 -28.8492 29.953 10.5556 -3.39377e-007 1.27259e-007 2.25396e-007 -3.39377e-007 1.27259e-007 2.25396e-007 -1.63348e-006 -1.24128e-007 -2.82772e-006 -3.39377e-007 1.27259e-007 2.25396e-007 -0.0146268 -8.53275e-005 -3.32361e-006 -1.63361e-006 -1.23768e-007 -2.82773e-006 -3.39377e-007 1.27259e-007 2.25396e-007 -0.0187278 -0.00116406 5.79848e-005 -1.63368e-006 -1.23675e-007 -2.82772e-006 -3.39377e-007 1.27259e-007 2.25396e-007 -0.0122392 -0.00323362 0.000671474 -1.63367e-006 -1.23845e-007 -2.82768e-006 -3.39377e-007 1.27259e-007 2.25396e-007 -3.39377e-007 1.27259e-007 2.25396e-007 -1.63348e-006 -1.24128e-007 -2.82772e-006 -2.6535 -27.3211 9.71364 74.1442 5.52099 20.1307 -14.022 -5.29523 38.8669 67.8325 2.67701 -14.1081 -1.12233e-006 -5.85433e-007 1.09698e-006 -1.93108e-032 -1.59028e-015 -6.95746e-016 -5.64623e-008 -1.79269e-007 3.26652e-007 -1.12233e-006 -5.85433e-007 1.09698e-006 0.0150088 -9.35436e-005 -1.84154e-006 -1.12229e-006 -5.8529e-007 1.09706e-006 -1.12233e-006 -5.85433e-007 1.09698e-006 0.0189497 -0.00118092 -5.60769e-005 -1.12227e-006 -5.85256e-007 1.09709e-006 -1.12233e-006 -5.85433e-007 1.09698e-006 0.0123248 -0.00326386 -0.000681194 -1.12226e-006 -5.85331e-007 1.09707e-006 -1.12233e-006 -5.85433e-007 1.09698e-006 -1.93108e-032 -1.59028e-015 -6.95746e-016 -5.64623e-008 -1.79269e-007 3.26652e-007 -89.2917 -38.7813 -101.278 -166.008 41.7969 151.737 14.6028 -33.7936 17.5846 -2.1074e-006 -3.77587e-007 -3.09337e-006 102.661 -28.5799 99.5016 162.263 50.7588 -149.895 -14.4965 -11.1686 -26.3028 -1.32351e-006 1.96837e-007 3.19229e-006 
-6.44977 13.7425 -5.58681 -0 -16.1807 -0 0.128924 5.19882 3.01008 -0.0179131 10.3974 6.04596 -0.0179128 10.3974 6.04596 -16.964 -27.4711 -21.0103 -13.0577 5.33054 -5.76724 25.5847 0.162034 -71.8962 -36.6728 -15.5364 -12.1277 -56.3385 -24.4372 -90.8399 -28.8492 29.953 10.5556 -1.49448e-006 2.22946e-006 -5.42695e-007 1.3678e-007 -1.72197e-006 1.44482e-006 -6.45918e-007 1.91228e-006 -1.10652e-006 -1.49448e-006 2.22946e-006 -5.42695e-007 -0.0146333 -8.69499e-005 5.33227e-006 -3.39426e-007 1.26844e-007 2.25549e-007 -1.49448e-006 2.22946e-006 -5.42695e-007 -0.0187241 -0.00116803 5.94721e-005 -3.39424e-007 1.26836e-007 2.25556e-007 -1.49448e-006 2.22946e-006 -5.42695e-007 -0.0122497 -0.00323941 0.000675571 -3.39419e-007 1.26851e-007 2.25555e-007 -1.49448e-006 2.22946e-006 -5.42695e-007 1.3678e-007 -1.72197e-006 1.44482e-006 -6.45918e-007 1.91228e-006 -1.10652e-006 -2.58195 -26.7817 9.54164 74.3033 5.59595 20.1126 -14.0308 -5.30229 38.8586 67.8382 2.66574 -14.0996 -1.12131e-006 -5.85467e-007 1.09834e-006 -1.12131e-006 -5.85467e-007 1.09834e-006 -1.12131e-006 -5.85467e-007 1.09834e-006 -1.12131e-006 -5.85467e-007 1.09834e-006 0.0150205 -9.15849e-005 5.73065e-006 -1.12127e-006 -5.85323e-007 1.09842e-006 -1.12131e-006 -5.85467e-007 1.09834e-006 0.01894 -0.00118794 -6.32544e-005 -1.12125e-006 -5.85289e-007 1.09845e-006 -1.12131e-006 -5.85467e-007 1.09834e-006 0.0122916 -0.00325214 -0.000672584 -1.12124e-006 -5.85365e-007 1.09844e-006 -1.12131e-006 -5.85467e-007 1.09834e-006 -1.12131e-006 -5.85467e-007 1.09834e-006 -1.12131e-006 -5.85467e-007 1.09834e-006 -90.1455 -39.3346 -102.301 -166.021 41.7739 151.736 14.894 -33.744 17.2937 0 0 -3.18055e-015 103.25 -29.0044 100.234 162.264 50.7573 -149.89 -14.9553 -11.1108 -25.9767 2.19909e-007 -4.84721e-007 3.0839e-006 
-6.45041 13.5967 -5.66838 -0 -15.3508 -0 0.0954191 4.91872 3.01465 -0.0704493 9.83564 6.05473 -0.070448 9.83563 6.05473 -16.9661 -27.4836 -21.0146 -13.0471 4.8141 -5.88743 25.6793 0.591283 -71.9976 -36.8268 -15.4831 -12.1679 -56.3358 -24.283 -90.869 -28.8492 29.953 10.5556 8.48685e-007 -3.16211e-007 -5.64169e-007 -5.09211e-007 1.89727e-007 3.38501e-007 6.78948e-007 -2.52969e-007 -4.51335e-007 8.48685e-007 -3.16211e-007 -5.64169e-007 -0.0146572 -8.68734e-005 1.15879e-006 6.7895e-007 -2.52911e-007 -4.51368e-007 8.48685e-007 -3.16211e-007 -5.64169e-007 -0.0188109 -0.0011765 6.66288e-005 6.78946e-007 -2.52895e-007 -4.51384e-007 8.48685e-007 -3.16211e-007 -5.64169e-007 -0.0122815 -0.00325627 0.000677896 6.78935e-007 -2.52924e-007 -4.51382e-007 8.48685e-007 -3.16211e-007 -5.64169e-007 -5.09211e-007 1.89727e-007 3.38501e-007 6.78948e-007 -2.52969e-007 -4.51335e-007 -2.50897 -26.2427 9.36967 74.4625 5.67089 20.0944 -14.0396 -5.30935 38.8502 67.844 2.65448 -14.0911 3.18055e-015 7.95139e-016 3.27995e-015 1.59028e-015 7.95139e-016 -3.97569e-016 1.59028e-015 -7.95139e-016 -4.96962e-016 3.18055e-015 7.95139e-016 3.27995e-015 0.015045 -9.31073e-005 -5.47477e-006 -0 0 8.84592e-015 3.18055e-015 7.95139e-016 3.27995e-015 0.0189703 -0.00118551 -5.77164e-005 -1.10348e-031 1.59028e-015 3.97569e-015 3.18055e-015 7.95139e-016 3.27995e-015 0.0122169 -0.00323575 -0.000672531 1.59028e-015 0 2.48481e-015 3.18055e-015 7.95139e-016 3.27995e-015 1.59028e-015 7.95139e-016 -3.97569e-016 1.59028e-015 -7.95139e-016 -4.96962e-016 -91.0186 -39.8756 -103.342 -166.033 41.751 151.735 15.1854 -33.6953 17.0026 -4.27132e-007 -1.10455e-007 -7.28624e-007 103.848 -29.4219 100.973 162.265 50.756 -149.886 -15.4144 -11.0553 -25.6503 1.20079e-006 -1.45419e-006 -2.31424e-007 
